<svg width="24" height="22" viewBox="0 0 24 22" fill="none" xmlns="http://www.w3.org/2000/svg">
<g clip-path="url(#clip0_16_3422)">
<path d="M24.0001 15.6323C23.8184 12.7883 22.1431 11.9928 20.6897 11.6348C19.8823 11.4359 19.2162 11.6745 18.8125 11.9132C18.1868 12.7087 17.339 13.4247 16.249 13.8822C17.5005 13.3253 18.3886 12.3706 19.0346 11.3961C19.0547 11.3563 19.0749 11.3364 19.0951 11.2967C20.1246 9.64591 20.4273 7.91562 20.4475 7.81617C20.6695 6.34443 20.4273 5.05168 20.064 4.05725C19.3777 2.10819 15.4416 -0.397761 11.1826 0.0596736C6.92354 0.536997 2.36173 3.77882 2.18006 7.31896C2.01858 10.879 5.04634 12.5695 5.04634 12.5695L5.18763 12.6491C5.16745 12.6491 5.12708 12.6292 5.10689 12.6292C5.67207 12.9275 6.31799 13.1264 7.06484 13.0667C7.10521 13.0667 7.14558 13.0667 7.20613 13.0468C7.16576 13.0468 7.12539 13.0468 7.06484 13.0667C6.09596 13.1463 5.30874 12.9076 4.70319 12.5297C3.63338 12.3309 2.11951 12.3706 0.787295 14.2998C-0.847693 16.6268 0.524889 18.5758 1.00933 19.073C1.55433 19.6299 4.19856 21.0818 6.47947 19.8487C6.8428 19.6498 7.16576 19.4708 7.44835 19.2918C7.44835 19.2918 7.26669 19.1725 7.16576 19.0929C7.04465 18.9935 6.94373 18.8344 6.94373 18.8344C7.00428 18.894 7.06484 18.9537 7.12539 19.0134C7.52909 19.3515 8.5989 20.0476 10.5972 19.968C12.1515 19.9084 13.8874 19.1526 14.4526 18.3173C14.3718 18.894 12.9589 19.7691 11.4652 20.0476C11.4854 20.0476 11.445 20.0476 11.4652 20.0476C11.667 20.3459 11.9496 20.6442 12.3735 20.9624C14.0085 22.1955 16.5316 21.5989 17.4803 20.6641C18.0051 20.147 18.1666 19.8288 18.1262 19.5504C17.0362 19.431 16.0674 19.1924 16.0674 19.1924C16.0674 19.1924 18.7923 19.6299 19.9833 19.4509C20.8714 19.3117 21.7394 18.9935 22.2642 18.7151C23.2532 18.0786 24.101 17.1041 24.0001 15.6323Z" fill="#00D9FF"/>
</g>
<defs>
<clipPath id="clip0_16_3422">
<rect width="24" height="21.6585" fill="white"/>
</clipPath>
</defs>
</svg>
